<mxfile host="app.diagrams.net" agent="Mozilla/5.0 (Windows NT 10.0; Win64; x64) AppleWebKit/537.36 (KHTML, like Gecko) Chrome/128.0.0.0 Safari/537.36" version="24.7.8">
  <diagram name="Page-1" id="c7488fd3-1785-93aa-aadb-54a6760d102a">
    <mxGraphModel dx="819" dy="446" grid="1" gridSize="10" guides="1" tooltips="1" connect="1" arrows="1" fold="1" page="1" pageScale="1" pageWidth="1100" pageHeight="850" background="none" math="0" shadow="0">
      <root>
        <mxCell id="0" />
        <mxCell id="1" parent="0" />
        <mxCell id="2b4e8129b02d487f-1" value="Pool" style="swimlane;html=1;childLayout=stackLayout;horizontal=1;startSize=20;horizontalStack=0;rounded=0;shadow=0;labelBackgroundColor=none;strokeWidth=1;fontFamily=Verdana;fontSize=8;align=center;" parent="1" vertex="1">
          <mxGeometry x="180" y="70" width="680" height="675.01" as="geometry" />
        </mxCell>
        <mxCell id="2b4e8129b02d487f-2" value="Lane 1" style="swimlane;html=1;startSize=20;horizontal=0;" parent="2b4e8129b02d487f-1" vertex="1">
          <mxGeometry y="20" width="680" height="231.625" as="geometry" />
        </mxCell>
        <mxCell id="2b4e8129b02d487f-18" style="edgeStyle=orthogonalEdgeStyle;rounded=0;html=1;labelBackgroundColor=none;startArrow=none;startFill=0;startSize=5;endArrow=classicThin;endFill=1;endSize=5;jettySize=auto;orthogonalLoop=1;strokeWidth=1;fontFamily=Verdana;fontSize=8" parent="2b4e8129b02d487f-2" source="2b4e8129b02d487f-5" target="2b4e8129b02d487f-6" edge="1">
          <mxGeometry relative="1" as="geometry" />
        </mxCell>
        <mxCell id="2b4e8129b02d487f-5" value="INÍCIO" style="ellipse;whiteSpace=wrap;html=1;rounded=0;shadow=0;labelBackgroundColor=none;strokeWidth=1;fontFamily=Verdana;fontSize=8;align=center;" parent="2b4e8129b02d487f-2" vertex="1">
          <mxGeometry x="40" y="50" width="50" height="50" as="geometry" />
        </mxCell>
        <mxCell id="2b4e8129b02d487f-6" value="ACORDAR" style="rounded=1;whiteSpace=wrap;html=1;shadow=0;labelBackgroundColor=none;strokeWidth=1;fontFamily=Verdana;fontSize=8;align=center;" parent="2b4e8129b02d487f-2" vertex="1">
          <mxGeometry x="120" y="56.49999999999997" width="70" height="37" as="geometry" />
        </mxCell>
        <mxCell id="vAgt9xQLDZl3CezJy_8V-2" value="" style="edgeStyle=orthogonalEdgeStyle;rounded=0;orthogonalLoop=1;jettySize=auto;html=1;" edge="1" parent="2b4e8129b02d487f-2" source="2b4e8129b02d487f-12" target="vAgt9xQLDZl3CezJy_8V-1">
          <mxGeometry relative="1" as="geometry" />
        </mxCell>
        <mxCell id="2b4e8129b02d487f-12" value="LEVANTAR DA CAMA" style="rounded=1;whiteSpace=wrap;html=1;shadow=0;labelBackgroundColor=none;strokeWidth=1;fontFamily=Verdana;fontSize=8;align=center;" parent="2b4e8129b02d487f-2" vertex="1">
          <mxGeometry x="230" y="56.49999999999996" width="70" height="37" as="geometry" />
        </mxCell>
        <mxCell id="2b4e8129b02d487f-24" style="edgeStyle=orthogonalEdgeStyle;rounded=0;html=1;labelBackgroundColor=none;startArrow=none;startFill=0;startSize=5;endArrow=classicThin;endFill=1;endSize=5;jettySize=auto;orthogonalLoop=1;strokeWidth=1;fontFamily=Verdana;fontSize=8" parent="2b4e8129b02d487f-2" source="2b4e8129b02d487f-6" target="2b4e8129b02d487f-12" edge="1">
          <mxGeometry relative="1" as="geometry" />
        </mxCell>
        <mxCell id="vAgt9xQLDZl3CezJy_8V-4" value="" style="edgeStyle=orthogonalEdgeStyle;rounded=0;orthogonalLoop=1;jettySize=auto;html=1;" edge="1" parent="2b4e8129b02d487f-2" source="vAgt9xQLDZl3CezJy_8V-1" target="vAgt9xQLDZl3CezJy_8V-3">
          <mxGeometry relative="1" as="geometry" />
        </mxCell>
        <mxCell id="vAgt9xQLDZl3CezJy_8V-1" value="ESCOVAR OS DENTES" style="whiteSpace=wrap;html=1;fontSize=8;fontFamily=Verdana;rounded=1;shadow=0;labelBackgroundColor=none;strokeWidth=1;" vertex="1" parent="2b4e8129b02d487f-2">
          <mxGeometry x="350" y="57.5" width="70" height="35" as="geometry" />
        </mxCell>
        <mxCell id="vAgt9xQLDZl3CezJy_8V-6" value="" style="edgeStyle=orthogonalEdgeStyle;rounded=0;orthogonalLoop=1;jettySize=auto;html=1;" edge="1" parent="2b4e8129b02d487f-2" source="vAgt9xQLDZl3CezJy_8V-3" target="vAgt9xQLDZl3CezJy_8V-5">
          <mxGeometry relative="1" as="geometry" />
        </mxCell>
        <mxCell id="vAgt9xQLDZl3CezJy_8V-3" value="TOMAR CAFÉ DA MANHÃ" style="whiteSpace=wrap;html=1;fontSize=8;fontFamily=Verdana;rounded=1;shadow=0;labelBackgroundColor=none;strokeWidth=1;" vertex="1" parent="2b4e8129b02d487f-2">
          <mxGeometry x="470" y="57.5" width="70" height="36.25" as="geometry" />
        </mxCell>
        <mxCell id="vAgt9xQLDZl3CezJy_8V-5" value="VAI PARA ACADEMIA?" style="rhombus;whiteSpace=wrap;html=1;fontSize=8;fontFamily=Verdana;rounded=1;shadow=0;labelBackgroundColor=none;strokeWidth=1;" vertex="1" parent="2b4e8129b02d487f-2">
          <mxGeometry x="465" y="151.625" width="80" height="80" as="geometry" />
        </mxCell>
        <mxCell id="vAgt9xQLDZl3CezJy_8V-15" value="" style="edgeStyle=orthogonalEdgeStyle;rounded=0;orthogonalLoop=1;jettySize=auto;html=1;" edge="1" parent="2b4e8129b02d487f-2" source="vAgt9xQLDZl3CezJy_8V-7" target="vAgt9xQLDZl3CezJy_8V-14">
          <mxGeometry relative="1" as="geometry" />
        </mxCell>
        <mxCell id="vAgt9xQLDZl3CezJy_8V-7" value="COLOCAR ROUPA DE ACADEMIA" style="whiteSpace=wrap;html=1;fontSize=8;fontFamily=Verdana;rounded=1;shadow=0;labelBackgroundColor=none;strokeWidth=1;" vertex="1" parent="2b4e8129b02d487f-2">
          <mxGeometry x="320" y="167.91" width="85" height="47.44" as="geometry" />
        </mxCell>
        <mxCell id="vAgt9xQLDZl3CezJy_8V-9" value="SIM" style="text;html=1;align=center;verticalAlign=middle;resizable=0;points=[];autosize=1;strokeColor=none;fillColor=none;" vertex="1" parent="2b4e8129b02d487f-2">
          <mxGeometry x="410" y="167.91000000000003" width="40" height="30" as="geometry" />
        </mxCell>
        <mxCell id="vAgt9xQLDZl3CezJy_8V-8" value="" style="edgeStyle=orthogonalEdgeStyle;rounded=0;orthogonalLoop=1;jettySize=auto;html=1;" edge="1" parent="2b4e8129b02d487f-2">
          <mxGeometry relative="1" as="geometry">
            <mxPoint x="465" y="191.535" as="sourcePoint" />
            <mxPoint x="405" y="191.535" as="targetPoint" />
          </mxGeometry>
        </mxCell>
        <mxCell id="vAgt9xQLDZl3CezJy_8V-23" value="" style="edgeStyle=orthogonalEdgeStyle;rounded=0;orthogonalLoop=1;jettySize=auto;html=1;" edge="1" parent="2b4e8129b02d487f-2" source="vAgt9xQLDZl3CezJy_8V-14" target="vAgt9xQLDZl3CezJy_8V-22">
          <mxGeometry relative="1" as="geometry" />
        </mxCell>
        <mxCell id="vAgt9xQLDZl3CezJy_8V-14" value="IR PRA ACADEMIA" style="whiteSpace=wrap;html=1;fontSize=8;fontFamily=Verdana;rounded=1;shadow=0;labelBackgroundColor=none;strokeWidth=1;" vertex="1" parent="2b4e8129b02d487f-2">
          <mxGeometry x="150" y="167.91" width="92.5" height="48.37" as="geometry" />
        </mxCell>
        <mxCell id="vAgt9xQLDZl3CezJy_8V-22" value="TREINAR" style="whiteSpace=wrap;html=1;fontSize=8;fontFamily=Verdana;rounded=1;shadow=0;labelBackgroundColor=none;strokeWidth=1;" vertex="1" parent="2b4e8129b02d487f-2">
          <mxGeometry x="30" y="166.97" width="90" height="48.38" as="geometry" />
        </mxCell>
        <mxCell id="2b4e8129b02d487f-3" value="Lane 2" style="swimlane;html=1;startSize=20;horizontal=0;" parent="2b4e8129b02d487f-1" vertex="1">
          <mxGeometry y="251.625" width="680" height="273.385" as="geometry" />
        </mxCell>
        <mxCell id="vAgt9xQLDZl3CezJy_8V-17" value="" style="edgeStyle=orthogonalEdgeStyle;rounded=0;orthogonalLoop=1;jettySize=auto;html=1;" edge="1" parent="2b4e8129b02d487f-3" source="vAgt9xQLDZl3CezJy_8V-11" target="vAgt9xQLDZl3CezJy_8V-16">
          <mxGeometry relative="1" as="geometry" />
        </mxCell>
        <mxCell id="vAgt9xQLDZl3CezJy_8V-11" value="TROCAR DE ROUPA" style="whiteSpace=wrap;html=1;fontSize=8;fontFamily=Verdana;rounded=1;shadow=0;labelBackgroundColor=none;strokeWidth=1;" vertex="1" parent="2b4e8129b02d487f-3">
          <mxGeometry x="452.5" y="80.38" width="105" height="46.5" as="geometry" />
        </mxCell>
        <mxCell id="vAgt9xQLDZl3CezJy_8V-13" value="NÃO" style="text;html=1;align=center;verticalAlign=middle;resizable=0;points=[];autosize=1;strokeColor=none;fillColor=none;" vertex="1" parent="2b4e8129b02d487f-3">
          <mxGeometry x="495" y="0.0049999999999954525" width="50" height="30" as="geometry" />
        </mxCell>
        <mxCell id="vAgt9xQLDZl3CezJy_8V-32" value="" style="edgeStyle=orthogonalEdgeStyle;rounded=0;orthogonalLoop=1;jettySize=auto;html=1;" edge="1" parent="2b4e8129b02d487f-3" source="vAgt9xQLDZl3CezJy_8V-16" target="vAgt9xQLDZl3CezJy_8V-31">
          <mxGeometry relative="1" as="geometry" />
        </mxCell>
        <mxCell id="vAgt9xQLDZl3CezJy_8V-16" value="LIGAR COMPUTADOR" style="whiteSpace=wrap;html=1;fontSize=8;fontFamily=Verdana;rounded=1;shadow=0;labelBackgroundColor=none;strokeWidth=1;" vertex="1" parent="2b4e8129b02d487f-3">
          <mxGeometry x="295" y="78.76" width="90" height="49.75" as="geometry" />
        </mxCell>
        <mxCell id="vAgt9xQLDZl3CezJy_8V-30" style="edgeStyle=orthogonalEdgeStyle;rounded=0;orthogonalLoop=1;jettySize=auto;html=1;entryX=0.75;entryY=0;entryDx=0;entryDy=0;" edge="1" parent="2b4e8129b02d487f-3" source="vAgt9xQLDZl3CezJy_8V-24" target="vAgt9xQLDZl3CezJy_8V-16">
          <mxGeometry relative="1" as="geometry" />
        </mxCell>
        <mxCell id="vAgt9xQLDZl3CezJy_8V-24" value="VOLTAR PARA CASA" style="whiteSpace=wrap;html=1;fontSize=8;fontFamily=Verdana;rounded=1;shadow=0;labelBackgroundColor=none;strokeWidth=1;" vertex="1" parent="2b4e8129b02d487f-3">
          <mxGeometry x="28.75" y="93.96000000000001" width="92.5" height="42.08" as="geometry" />
        </mxCell>
        <mxCell id="vAgt9xQLDZl3CezJy_8V-31" value="COMEÇAR A TRABALHAR" style="ellipse;whiteSpace=wrap;html=1;fontSize=8;fontFamily=Verdana;rounded=1;shadow=0;labelBackgroundColor=none;strokeWidth=1;" vertex="1" parent="2b4e8129b02d487f-3">
          <mxGeometry x="307.5" y="158.38" width="65" height="61.63" as="geometry" />
        </mxCell>
        <mxCell id="2b4e8129b02d487f-4" value="Lane 3" style="swimlane;html=1;startSize=20;horizontal=0;" parent="2b4e8129b02d487f-1" vertex="1">
          <mxGeometry y="525.01" width="680" height="150" as="geometry" />
        </mxCell>
        <mxCell id="vAgt9xQLDZl3CezJy_8V-12" value="" style="edgeStyle=orthogonalEdgeStyle;rounded=0;orthogonalLoop=1;jettySize=auto;html=1;" edge="1" parent="2b4e8129b02d487f-1" source="vAgt9xQLDZl3CezJy_8V-5" target="vAgt9xQLDZl3CezJy_8V-11">
          <mxGeometry relative="1" as="geometry" />
        </mxCell>
        <mxCell id="vAgt9xQLDZl3CezJy_8V-25" value="" style="edgeStyle=orthogonalEdgeStyle;rounded=0;orthogonalLoop=1;jettySize=auto;html=1;" edge="1" parent="2b4e8129b02d487f-1" source="vAgt9xQLDZl3CezJy_8V-22" target="vAgt9xQLDZl3CezJy_8V-24">
          <mxGeometry relative="1" as="geometry" />
        </mxCell>
      </root>
    </mxGraphModel>
  </diagram>
</mxfile>
